<svg width="244" height="268" viewBox="0 0 244 268" fill="none" xmlns="http://www.w3.org/2000/svg">
<path d="M99.0104 0.191922C98.9607 0.324542 99.1099 2.42988 99.3254 4.88334C100.502 18.195 100.734 21.0795 100.668 21.2784C100.602 21.4276 100.005 21.5271 98.6125 21.5934C91.4677 21.9747 87.2072 22.4554 81.5709 23.533C68.6239 25.9864 56.6053 30.9265 46.0123 38.1211C29.4017 49.4104 16.6205 66.4188 9.82372 86.2621C5.97775 97.5181 4.13766 109.835 4.71787 120.528C4.9168 124.142 5.41412 128.916 5.74567 130.143C6.02749 131.204 4.93337 131.999 16.2392 122.484C19.3226 119.881 21.9253 117.743 22.0247 117.709C22.1408 117.693 26.7327 119.119 32.253 120.909C37.7733 122.683 42.415 124.142 42.5642 124.142C42.846 124.142 43.1278 123.594 42.962 123.346C42.9289 123.28 42.8128 121.771 42.6968 119.997C41.9508 107.05 45.6973 93.5727 52.9417 83.1123C61.5951 70.5964 74.9731 62.4071 91.2521 59.6552C93.5564 59.274 96.7227 58.8927 98.9109 58.7435C100.171 58.644 100.519 58.6772 100.585 58.8429C100.635 58.9756 100.519 60.567 100.353 62.3905C98.9607 77.3102 98.4302 83.2781 98.5131 83.4605C98.712 83.9909 99.3254 83.5599 101.713 81.2557C106.205 76.8958 110.515 71.5579 115.422 64.2472C120.246 57.036 124.772 48.5484 126.744 42.9949C127.341 41.2874 127.341 41.0719 126.562 38.635C123.28 28.3902 112.654 12.7742 101.514 1.83309C99.6735 0.0427252 99.1927 -0.272246 99.0104 0.191922Z" fill="black"/>
<path d="M137.039 29.3019C136.857 29.4179 137.072 31.142 138.332 39.2318C139.161 44.6195 139.841 49.2114 139.841 49.4435C139.841 49.7916 138.448 51.0515 131.718 56.8536C126.562 61.2964 123.595 63.9654 123.628 64.1311C123.661 64.2638 124.838 64.9766 126.247 65.7226C130.557 67.9605 133.939 70.2151 137.503 73.2322C147.367 81.5375 154.197 92.6112 156.816 104.58C159.253 115.753 158.109 127.457 153.401 139.227C152.241 142.111 149.655 147.35 149.389 147.35C149.273 147.35 144.748 144.068 139.343 140.056C133.939 136.044 129.413 132.762 129.281 132.762C128.866 132.762 128.866 133.259 129.297 135.464C131.651 147.25 140.239 165.966 148.013 176.278C150.318 179.344 150.268 179.311 152.373 179.842C154.777 180.455 156.683 180.787 159.651 181.085C170.111 182.146 185.014 180.903 196.685 178.002C199.818 177.239 200.514 176.941 200.266 176.526C200.199 176.41 195.939 174.255 190.816 171.719C185.694 169.199 181.45 167.027 181.384 166.928C181.317 166.828 181.699 165.933 182.246 164.955C189.324 152.174 193.452 139.675 194.944 126.545C195.823 118.82 195.674 110.332 194.53 102.773C191.944 85.6818 184.451 69.2536 173.062 55.5937C163.646 44.3377 151.743 35.2532 139.526 30.0645C137.122 29.0367 137.338 29.103 137.039 29.3019Z" fill="black"/>
<path d="M32.6675 130.126C28.9209 130.341 25.1081 130.806 22.6049 131.369C21.5274 131.618 21.4445 131.668 20.1017 133.077C12.7911 140.769 3.77296 159.916 0.424312 174.869C0.30827 175.366 0.142495 175.913 0.0596079 176.079C-0.139322 176.443 0.192227 176.908 0.573509 176.808C0.722706 176.775 4.66814 174.006 9.34298 170.658C14.0344 167.326 17.9301 164.624 17.9964 164.673C18.0793 164.723 18.9911 166.049 20.0354 167.624C35.0546 190.368 56.2572 205.056 81.1565 209.996C85.4998 210.858 87.7377 211.14 95.8607 211.836C98.3639 212.052 101.53 212.052 103.652 211.853C104.547 211.753 106.404 211.604 107.763 211.505C124.772 210.212 141.847 204.194 154.843 194.911C158.208 192.507 160.248 190.783 160.198 190.402C160.148 190.103 158.822 189.589 150.566 186.705C145.295 184.865 140.935 183.323 140.902 183.273C140.852 183.224 139.758 178.516 138.465 172.796C136.79 165.419 136.028 162.336 135.846 162.22C135.647 162.087 135.166 162.353 133.69 163.397C125.8 168.967 116.549 172.581 106.52 173.99C103.553 174.404 95.0152 174.404 92.1805 173.99C83.3613 172.697 75.9014 169.846 68.7234 165.038C62.1919 160.662 55.5941 153.998 51.0021 147.118C50.2727 146.04 50.1567 145.792 50.339 145.609C50.4716 145.493 55.4283 143.106 61.3464 140.305C67.2812 137.503 72.2212 135.132 72.3373 135.049C72.9507 134.536 72.4533 134.237 69.6683 133.425C60.5341 130.789 45.1669 129.413 32.6675 130.126Z" fill="black"/>
<path d="M171.627 194.563C179.078 187.263 191.035 187.386 198.335 194.837L230.728 227.901C238.028 235.352 237.905 247.309 230.454 254.609V254.609C223.004 261.908 211.046 261.786 203.747 254.335L169.89 219.777V219.777C163.398 213.151 163.507 202.518 170.133 196.027L171.627 194.563V194.563Z" fill="black"/>
<path d="M165.343 187.116L169 187.5L173 187.116L178.5 187.116L188 184L199 195.5L171.5 221.5L152 202.5L156.5 200.5L159.5 198L162 196L163.5 194L164.5 192L165.343 189.5L165.343 187.116Z" fill="black"/>
<path d="M168 189C179 188.5 179.5 188 176.5 188.5C183 187 184.461 187.692 187 186" stroke="black" stroke-width="3" stroke-linecap="round"/>
</svg>
